<?xml version="1.0" encoding="UTF-8"?>
<svg width="512" height="512" viewBox="0 0 512 512" xmlns="http://www.w3.org/2000/svg">
  <!-- Gradient definitions -->
  <defs>
    <linearGradient id="clockGradient" x1="0%" y1="0%" x2="100%" y2="100%">
      <stop offset="0%" style="stop-color:#4A90E2;stop-opacity:1" />
      <stop offset="100%" style="stop-color:#2E5CDB;stop-opacity:1" />
    </linearGradient>
    <linearGradient id="faceGradient" x1="0%" y1="0%" x2="100%" y2="100%">
      <stop offset="0%" style="stop-color:#FFFFFF;stop-opacity:1" />
      <stop offset="100%" style="stop-color:#F5F5F5;stop-opacity:1" />
    </linearGradient>
    <radialGradient id="shadowGradient" cx="50%" cy="50%" r="50%">
      <stop offset="0%" style="stop-color:#000000;stop-opacity:0.1" />
      <stop offset="100%" style="stop-color:#000000;stop-opacity:0.3" />
    </radialGradient>
  </defs>
  
  <!-- Drop shadow -->
  <circle cx="256" cy="266" r="220" fill="url(#shadowGradient)" opacity="0.3"/>
  
  <!-- Outer ring -->
  <circle cx="256" cy="256" r="230" fill="url(#clockGradient)" stroke="#1A4B8C" stroke-width="6"/>
  
  <!-- Clock face -->
  <circle cx="256" cy="256" r="190" fill="url(#faceGradient)" stroke="#E0E0E0" stroke-width="3"/>
  
  <!-- Hour markers (main 12, 3, 6, 9) -->
  <g stroke="#333333" stroke-width="8" stroke-linecap="round">
    <!-- 12 o'clock -->
    <line x1="256" y1="76" x2="256" y2="106"/>
    <!-- 3 o'clock -->
    <line x1="436" y1="256" x2="406" y2="256"/>
    <!-- 6 o'clock -->
    <line x1="256" y1="436" x2="256" y2="406"/>
    <!-- 9 o'clock -->
    <line x1="76" y1="256" x2="106" y2="256"/>
  </g>
  
  <!-- Minor hour markers (1, 2, 4, 5, 7, 8, 10, 11) -->
  <g stroke="#666666" stroke-width="4" stroke-linecap="round">
    <!-- 1 o'clock (30°) -->
    <line x1="346" y1="100.1" x2="339" y2="112.2"/>
    <!-- 2 o'clock (60°) -->
    <line x1="411.9" y1="166" x2="399.8" y2="173"/>
    <!-- 4 o'clock (120°) -->
    <line x1="411.9" y1="346" x2="399.8" y2="339"/>
    <!-- 5 o'clock (150°) -->
    <line x1="346" y1="411.9" x2="339" y2="399.8"/>
    <!-- 7 o'clock (210°) -->
    <line x1="166" y1="411.9" x2="173" y2="399.8"/>
    <!-- 8 o'clock (240°) -->
    <line x1="100.1" y1="346" x2="112.2" y2="339"/>
    <!-- 10 o'clock (300°) -->
    <line x1="100.1" y1="166" x2="112.2" y2="173"/>
    <!-- 11 o'clock (330°) -->
    <line x1="166" y1="100.1" x2="173" y2="112.2"/>
  </g>
  
  <!-- Clock hands showing 10:10 -->
  <!-- Hour hand (pointing at 10) -->
  <line x1="256" y1="256" x2="186.7" y2="216" stroke="#2C3E50" stroke-width="20" stroke-linecap="round"/>
  
  <!-- Minute hand (pointing at 2, which is 10 minutes) -->
  <line x1="256" y1="256" x2="359.9" y2="196" stroke="#2C3E50" stroke-width="16" stroke-linecap="round"/>
  
  <!-- Second hand (pointing at 5, which is 25 seconds) -->
  <line x1="256" y1="256" x2="321" y2="368.6" stroke="#E74C3C" stroke-width="6" stroke-linecap="round"/>
  
  <!-- Center dot -->
  <circle cx="256" cy="256" r="16" fill="#2C3E50"/>
  <circle cx="256" cy="256" r="10" fill="#FFFFFF"/>
  <circle cx="256" cy="256" r="4" fill="#E74C3C"/>
</svg>
